<svg width="32" height="32" viewBox="0 0 32 32" fill="none" xmlns="http://www.w3.org/2000/svg">
<path d="M8.40182 13.3333C6.9597 13.3333 5.77979 14.5333 5.77979 16C5.77979 17.4667 6.9597 18.6667 8.40182 18.6667C9.84394 18.6667 11.0239 17.4667 11.0239 16C11.0239 14.5333 9.84394 13.3333 8.40182 13.3333ZM24.134 13.3333C22.6919 13.3333 21.512 14.5333 21.512 16C21.512 17.4667 22.6919 18.6667 24.134 18.6667C25.5762 18.6667 26.7561 17.4667 26.7561 16C26.7561 14.5333 25.5762 13.3333 24.134 13.3333ZM16.2679 13.3333C14.8258 13.3333 13.6459 14.5333 13.6459 16C13.6459 17.4667 14.8258 18.6667 16.2679 18.6667C17.71 18.6667 18.89 17.4667 18.89 16C18.89 14.5333 17.71 13.3333 16.2679 13.3333Z" fill="#8D89A5"/>
</svg>
